<?xml version="1.0" encoding="UTF-8"?>
<svg id="Capa_1" data-name="Capa 1" xmlns="http://www.w3.org/2000/svg" viewBox="0 0 340.29 680">
  <defs>
    <style>
      .cls-1 {
        fill: #caa24f;
      }
    </style>
  </defs>
  <path class="cls-1" d="m51.83.8C45.93,4.5,10.73,128.5,1.93,176.5c-2.3,12.5-2.6,50.7-.6,62.5,8.5,47.8,30.2,82.9,69.4,112.3,12.3,9.3,24.5,16.5,43.3,25.7,11.2,5.5,19.8,10.4,22.8,13,9.1,8,14.1,23.3,16.8,51,1.6,16.1,1.6,104.1,0,124-2,24.7-5.5,40.3-11.5,50.5-8.4,14.3-27.9,27.6-54.1,37-35.4,12.5-44.9,17.2-46.1,22.2-.3,1.5-.7,3.4-1,4-.3,1,25.9,1.3,128.6,1.3h129v-2.4c0-6.3-9.8-11.9-40-22.6-19.5-7-27.7-10.8-39.6-18.5-29.2-19-34.4-39.2-34.4-134.5,0-74.8,3.9-98.7,18.3-112.2,1.8-1.6,10.9-6.8,20.2-11.4,28.4-13.9,46-25.5,62.7-41.3,35-33.2,51.3-68.8,54.4-119.1.7-12.2-.9-32.9-3.7-48-7.8-40.8-40.7-157.2-47.5-167.8l-1.4-2.2h-117.3C105.83,0,52.53.4,51.83.8Z"/>
</svg>